<?xml version="1.0" encoding="UTF-8"?>
<svg viewBox="0 0 138.53125 153.21875" xmlns="http://www.w3.org/2000/svg">
 <path transform="translate(.71875 -3.6562)" d="m43.969 3.6562c-0.70428 4.93-25.531 15.185-25.531 35.844-1e-5 26.451 24.75 32.688 24.75 32.688l-1.0312 1.875-6 10.969c0-2e-5 10.197 0.52658 15.625 5.1562 6.5454 5.5825 5.9375 17.395 5.9375 26 2e-5 6.7798-0.86499 13.957-4.3438 16.906-4.6704 3.9596-7.8438 4.2576-7.8438 8.9062 0 3.8778 2.9961 4.6289 7.8438 7.1875 6.2122 3.2788 5.9222 7.6875 15.156 7.6875s8.9753-4.4087 15.188-7.6875c4.8476-2.5586 7.8438-3.3097 7.8438-7.1875 0-4.6486-3.1733-4.9466-7.8438-8.9062-3.4788-2.9494-4.3438-10.126-4.3438-16.906 0-8.6045-0.63916-20.417 5.9062-26 5.4282-4.6297 15.656-5.1563 15.656-5.1562l-6-10.969-1.0625-1.875s24.75-6.2364 24.75-32.688c0-20.659-24.796-30.914-25.5-35.844-2.4259 8.5297 8.2812 20.329 8.2812 34.281 0 18.053-13.313 18.906-13.312 18.906-3.1156 0-4.3695 2.2188-5.5938 2.2188-2.6215-0.2739-3.8782-3.5938-6.4688-3.5938-2.4344 0-4.2825 3.75-7.5 3.75s-5.0656-3.75-7.5-3.75c-2.5906 0-3.816 3.3198-6.4375 3.5938-1.2243 1e-5 -2.4782-2.2188-5.5938-2.2188 0-1e-5 -13.312-0.85331-13.312-18.906 1e-5 -13.953 10.707-25.752 8.2812-34.281zm50.969 70.406c0-1e-5 16.608 7.3453 20.969 13.594 9.4622-7.1578 21.906-12.781 21.906-12.781s-11.928-3.1181-21.906-12.094c-5.7072 7.5444-20.969 11.281-20.969 11.281zm-52.781 0s-15.262-3.7368-20.969-11.281c-9.9785 8.9757-21.906 12.094-21.906 12.094s12.444 5.6234 21.906 12.781c4.3607-6.2485 20.969-13.594 20.969-13.594zm-1.7812-62.906c1.0173 2.1911-8.3125 15.7-8.3125 26.781-1e-5 13.588 7.2617 21.594 16.938 21.594 1.8456 1e-5 3.8549 2.5 5.5938 2.5 2.8344-1e-5 4.7119-3.1562 6.4375-3.1562 2.1943 1e-5 3.6909 3.4688 7.5 3.4688s5.3057-3.4687 7.5-3.4688c1.7256 0 3.6344 3.1562 6.4688 3.1562 1.7388 0 3.7481-2.5 5.5938-2.5 9.6758 0 16.906-8.0056 16.906-21.594 0-11.081-9.2986-24.59-8.2812-26.781 0 0 18.156 13.006 18.156 28.344 0 24.706-25.062 30.812-25.062 30.812l5.6562 12.688s-7.7888 1.1755-12.531 5c-6.3251 5.1008-6.4063 18.867-6.4062 28.188 0 10.978 0.40878 15.645 4.375 18.625 4.1826 3.1423 7.3438 3.8285 7.3438 7.0312 0 2.7915-3.2744 3.9192-7.5 5.7812-4.8064 2.118-5.2641 5.7812-12.219 5.7812s-7.4124-3.6633-12.219-5.7812c-4.2256-1.862-7.4688-2.9898-7.4688-5.7812-2e-5 -3.2028 3.1299-3.889 7.3125-7.0312 3.9662-2.9797 4.375-7.6465 4.375-18.625 1e-5 -9.3205-0.08124-23.087-6.4062-28.188-4.7424-3.8245-12.5-5-12.5-5l5.6562-12.688c1e-5 0-25.062-6.1062-25.062-30.812-1e-5 -15.338 18.156-28.344 18.156-28.344zm44.188 1-0.71875 0.34375c0.0097 0.02103 0.01915 0.0504 0.03125 0.0625 0.15699 0.15699 0.2346 0.21141 0.34375 0.3125l0.15625-0.34375c-0.0038-0.01355 0.0019-0.06175 0.03125-0.03125l0.15625-0.34375zm-63.625 54.406c5.0432 5.7737 13.062 7.9688 13.062 7.9688s-8.3273 4.3811-12.812 9.5312c1.3e-4 0.01 0 0.28125 0 0.28125-0.0449-0.0419-0.11033-0.0519-0.15625-0.09375-0.0884 0.104-0.1962 0.2079-0.28125 0.3125 0 0-3.8e-4 -0.53133 0-0.5625-4.7468-4.1943-14.188-8.9062-14.188-8.9062s9.0445-3.097 14.375-8.5312zm95.219 0c5.3305 5.4343 14.375 8.5312 14.375 8.5312s-9.4407 4.712-14.188 8.9062c3.9e-4 0.0312-1e-5 0.5625 0 0.5625-0.0851-0.10461-0.19287-0.20845-0.28125-0.3125-0.0459 0.042-0.11143 0.052-0.15625 0.09375 0 0-1.4e-4 -0.27085 0-0.28125-4.4852-5.1502-12.812-9.5313-12.812-9.5312s8.0192-2.195 13.062-7.9688zm-67.75 23.781-5.9375 5.9375 5.9375 5.9688 5.9688-5.9688-5.9688-5.9375zm40.25 0-5.9375 5.9375 5.9375 5.9688 5.9688-5.9688-5.9688-5.9375zm-40.25 2.8438 3.125 3.0938-3.125 3.1562-3.125-3.1562 3.125-3.0938zm40.25 0 3.1562 3.0938-3.1562 3.1562-3.0938-3.1562 3.0938-3.0938zm-45.719 9.0625c1.1824 2.922 4 11.958 4 22.812 1e-5 7.5142-0.74999 11.469-0.75 11.469s8.3934-2.4631 10.062-10.969c0.78254-3.9879 1.6593-18.684-2.375-21.188l-10.938-2.125zm51.219 0s-10.938 2.125-10.938 2.125c-4.0343 2.5039-3.1576 17.2-2.375 21.188 1.6691 8.5057 10.062 10.969 10.062 10.969s-0.74999-3.9545-0.75-11.469c1e-5 -10.855 2.8176-19.891 4-22.812zm-47.375 3.2812 5.8438 1.2188c2.172 2.9972 1.8125 7.8547 1.8125 14.594 2e-5 6.7967-5.0938 9.4062-5.0938 9.4062 0-16.335-1.675-20.272-2.5625-25.219zm43.531 0c-0.88747 4.9469-2.5625 8.884-2.5625 25.219 0 0-5.0937-2.6096-5.0938-9.4062-2e-5 -6.7391-0.39074-11.597 1.7812-14.594l5.875-1.2188zm-31.25 34.438c-4.9225 1e-5 -8.0625 1.037-8.0625 2.5312s3.14 2.4687 8.0625 2.4688c1.3108 0 2.7813-0.73816 2.7812-2.4688s-1.4705-2.5312-2.7812-2.5312zm18.969 0c-1.3108 0-2.7813 0.80069-2.7812 2.5312s1.4705 2.4688 2.7812 2.4688c4.9225-1e-5 8.0625-0.97452 8.0625-2.4688s-3.14-2.5312-8.0625-2.5312z"/>
</svg>
