<?xml version="1.0" encoding="UTF-8" standalone="no"?>
<!-- Created with Inkscape (http://www.inkscape.org/) -->

<svg
   xmlns:dc="http://purl.org/dc/elements/1.1/"
   xmlns:cc="http://creativecommons.org/ns#"
   xmlns:rdf="http://www.w3.org/1999/02/22-rdf-syntax-ns#"
   xmlns:svg="http://www.w3.org/2000/svg"
   xmlns="http://www.w3.org/2000/svg"
   xmlns:sodipodi="http://sodipodi.sourceforge.net/DTD/sodipodi-0.dtd"
   xmlns:inkscape="http://www.inkscape.org/namespaces/inkscape"
   width="210mm"
   height="297mm"
   viewBox="0 0 210 297"
   version="1.1"
   id="svg8"
   inkscape:version="0.92.4 (5da689c313, 2019-01-14)"
   sodipodi:docname="garlic-bull.svg"
   inkscape:export-filename="C:\Users\Dennis\Documents\code\dennisvargas\product-landing\img\garlic-bull2.png"
   inkscape:export-xdpi="94.856567"
   inkscape:export-ydpi="94.856567">
  <defs
     id="defs2" />
  <sodipodi:namedview
     id="base"
     pagecolor="#ffffff"
     bordercolor="#666666"
     borderopacity="1.0"
     inkscape:pageopacity="0.0"
     inkscape:pageshadow="2"
     inkscape:zoom="0.49497475"
     inkscape:cx="-889.92093"
     inkscape:cy="993.91351"
     inkscape:document-units="mm"
     inkscape:current-layer="layer2"
     showgrid="false"
     inkscape:window-width="1920"
     inkscape:window-height="1017"
     inkscape:window-x="-8"
     inkscape:window-y="-8"
     inkscape:window-maximized="1" />
  <metadata
     id="metadata5">
    <rdf:RDF>
      <cc:Work
         rdf:about="">
        <dc:format>image/svg+xml</dc:format>
        <dc:type
           rdf:resource="http://purl.org/dc/dcmitype/StillImage" />
        <dc:title />
      </cc:Work>
    </rdf:RDF>
  </metadata>
  <g
     inkscape:label="Layer 1"
     inkscape:groupmode="layer"
     id="layer1">
    <path
       style="fill:#000000;stroke-width:1.41088128"
       d="m 94.467572,229.55938 c -2.61059,-1.74306 -8.32466,-5.4529 -12.69793,-8.24408 -6.44518,-4.11355 -8.0329,-5.88761 -8.38171,-9.3654 -0.36153,-3.60458 0.57274,-5.11247 5.8437,-9.43161 6.61621,-5.4215 10.096,-11.56992 8.98404,-15.87392 -0.48861,-1.89125 -0.71292,-1.6384 -0.83968,0.94657 -0.27984,5.70688 -7.85733,15.35527 -12.14686,15.46656 -0.85274,0.0222 -1.4814,-6.51826 -1.58915,-16.53299 -0.11475,-10.66549 -0.96099,-19.0096 -2.37493,-23.41736 l -2.19665,-6.84777 6.43523,0.96502 c 11.28146,1.69176 11.41571,1.87043 13.27586,17.6686 0.88171,7.48833 1.00068,6.307 0.64848,-6.43933 -0.65468,-23.69371 -6.07334,-32.9442 -20.70597,-35.34826 -8.93115,-1.46733 -9.21506,-2.22912 -4.16539,-11.17665 3.60715,-6.39152 4.17072,-8.3433 2.68164,-9.28719 -1.03691,-0.65726 -2.59031,-1.20475 -3.452,-1.21663 -0.8617,-0.0118 -3.7407,-1.49691 -6.39778,-3.30005 -2.65708,-1.80315 -7.53491,-3.96476 -10.83962,-4.80358 -5.40138,-1.37102 -5.82417,-1.30059 -4.18383,0.69692 1.0036,1.22214 6.7575,4.54593 12.78646,7.3862 l 10.96173,5.16414 -7.43453,3.98179 c -4.08899,2.18998 -10.37663,6.10697 -13.97252,8.70443 -3.59589,2.59745 -6.98982,4.72265 -7.54205,4.72265 -0.55223,0 -2.71948,-1.2215 -4.81612,-2.71443 -2.09663,-1.49294 -8.51744,-5.26763 -14.26847,-8.38821 -10.2984897,-5.58809 -10.3986897,-5.69625 -6.63462,-7.16174 2.10198,-0.81838 5.48633,-2.13654 7.52078,-2.92924 6.63231,-2.58421 20.922,-13.332844 18.38508,-13.829154 -1.28246,-0.25089 -2.33174,-1.36196 -2.33174,-2.46904 0,-1.10708 -0.56281,-2.01287 -1.25069,-2.01287 -2.63968,0 -3.15661,-12.20433 -0.7696,-18.170036 2.67374,-6.682354 2.03731,-12.363303 -2.28946,-20.436112 -2.67808,-4.996722 -2.72803,-5.651845 -0.67033,-8.79229 1.22285,-1.866307 2.82899,-3.393284 3.5692,-3.393284 1.82701,0 4.97325,5.226845 7.00678,11.640406 1.88587,5.947814 2.79679,6.315451 17.51112,7.067331 9.10845,0.465427 9.99549,0.814293 14.46153,5.687587 4.61644,5.0374 6.04371,10.320612 3.52916,13.063578 -0.6758,0.73718 -1.63667,3.07206 -2.13526,5.18862 -0.78477,3.33137 -0.397,3.97618 2.88681,4.80036 4.57935,1.14935 9.45951,1.06962 15.78192,-0.25784 2.80928,-0.58983 6.9713,-0.24971 10.271278,0.83938 4.23609,1.39803 5.93847,1.44068 7.19881,0.18035 1.93615,-1.93615 9.38467,-2.16835 14.04513,-0.43785 2.05165,0.76181 5.36505,0.55448 8.90986,-0.55751 3.10394,-0.97368 4.8499,-1.83691 3.87992,-1.91827 -0.96998,-0.0814 -1.7636,-1.59391 -1.7636,-3.36121 0,-1.7673 -0.9736,-4.60328 -2.16355,-6.302185 -1.99641,-2.850268 -1.889,-3.523834 1.39028,-8.718555 4.67029,-7.398217 6.46224,-8.200265 20.94704,-9.375555 13.00207,-1.054981 13.57657,-1.370922 16.49882,-9.073349 2.64263,-6.965459 3.71488,-7.784053 6.52074,-4.978199 2.2409,2.240917 2.28026,3.04049 0.44341,9.009486 -1.34865,4.382527 -1.88356,11.487133 -1.61632,21.467651 0.36052,13.464406 0.1044,15.292426 -2.62988,18.768476 -1.66613,2.11813 -2.79822,4.060174 -2.51575,4.315664 2.18427,1.97563 17.41828,12.08482 18.21118,12.08482 0.55257,0 3.42408,1.01089 6.38113,2.24643 l 5.37648,2.24643 -9.79183,5.16069 c -5.3855,2.83839 -11.79349,6.58922 -14.23997,8.33518 -2.44648,1.74597 -4.89996,3.17449 -5.45219,3.17449 -0.55224,0 -3.94617,-2.1252 -7.54205,-4.72265 -3.5959,-2.59746 -9.88354,-6.51445 -13.97252,-8.70443 l -7.43453,-3.98179 11.12209,-5.22786 c 12.4464,-5.85035 15.22245,-8.40592 9.12104,-8.39662 -2.17976,0.003 -6.82023,1.90529 -10.31216,4.2266 -3.49193,2.32131 -6.98386,4.233 -7.75985,4.24821 -0.77598,0.0152 -2.25926,0.56541 -3.29617,1.22267 -1.48908,0.94389 -0.92551,2.89567 2.68164,9.28719 5.04968,8.94753 4.76577,9.70932 -4.16539,11.17665 -14.63262,2.40406 -20.05129,11.65455 -20.70597,35.34826 -0.35219,12.74633 -0.23323,13.92766 0.64848,6.43933 1.86016,-15.79817 1.99441,-15.97684 13.27587,-17.6686 l 6.43523,-0.96502 -2.19666,6.84777 c -1.41393,4.40776 -2.26017,12.75187 -2.37492,23.41736 -0.10775,10.01473 -0.73642,16.55511 -1.58916,16.53299 -4.28953,-0.11132 -11.86701,-9.75968 -12.14686,-15.46656 -0.12675,-2.58497 -0.35106,-2.83782 -0.83968,-0.94657 -1.11195,4.304 2.36783,10.45242 8.98405,15.87392 5.27096,4.31914 6.20522,5.82703 5.8437,9.43161 -0.34881,3.47779 -1.93654,5.25185 -8.38172,9.3654 -4.37327,2.79118 -10.08733,6.50102 -12.69793,8.24408 -2.94409,1.96574 -6.88961,3.1692 -10.39006,3.1692 -3.50046,0 -7.445998,-1.20346 -10.390088,-3.1692 z m 21.602788,-5.81368 c 2.28707,-1.64948 6.73134,-4.26885 9.87617,-5.82082 8.24392,-4.06836 8.31453,-7.89582 0.25053,-13.57986 -3.49768,-2.46538 -7.08947,-6.24501 -7.98174,-8.39916 -1.06165,-2.56305 -1.45599,-11.38794 -1.14103,-25.53538 0.40452,-18.16994 0.93145,-22.51612 3.30306,-27.24369 3.03404,-6.04807 10.29558,-11.73277 16.60721,-13.00097 2.15011,-0.43202 4.20879,-1.27009 4.57484,-1.86238 0.36606,-0.5923 -0.94384,-4.71604 -2.91089,-9.16388 -1.96705,-4.44784 -3.39083,-8.17945 -3.16396,-8.29247 0.22687,-0.11301 3.39041,-1.5947 7.03009,-3.29263 l 6.6176,-3.08715 -4.14856,-4.44104 c -2.2817,-2.442584 -4.14855,-4.983044 -4.14855,-5.645484 0,-0.66244 -3.85621,0.18304 -8.56936,1.87886 -8.23,2.9612 -8.73739,2.98687 -12.81221,0.64824 -3.80469,-2.18359 -4.55486,-2.21651 -7.26426,-0.31877 -3.53178,2.47375 -9.09032,2.71884 -14.553638,0.64169 -2.78592,-1.0592 -5.00622,-1.00747 -7.88184,0.18365 -3.25128,1.34673 -5.4618,1.19952 -11.76662,-0.78359 l -7.76325,-2.44183 -4.90454,3.74086 c -2.69749,2.05748 -4.90453,4.383924 -4.90453,5.169874 0,0.78595 3.15952,2.81705 7.02115,4.51356 3.86164,1.69651 7.03612,3.58184 7.05441,4.18963 0.0183,0.60778 -1.57675,4.28224 -3.54452,8.16546 -1.96778,3.88322 -3.25079,7.58949 -2.85113,8.23616 0.39966,0.64666 2.48583,1.52922 4.63594,1.96124 6.31163,1.2682 13.57317,6.9529 16.60721,13.00097 2.37161,4.72757 2.89855,9.07375 3.30306,27.24369 0.31496,14.14744 -0.0794,22.97233 -1.14102,25.53538 -0.89228,2.15415 -4.48406,5.93378 -7.98174,8.39916 -8.06401,5.68404 -7.9934,9.5115 0.25052,13.57986 3.14483,1.55197 7.58911,4.17616 9.87617,5.83151 7.483998,5.41684 14.904868,5.41332 22.425428,-0.0113 z m -33.869878,-9.94807 c -2.64149,-1.93954 -2.59771,-2.06474 1.23307,-3.5272 2.18447,-0.83394 5.12249,-1.51628 6.52893,-1.51628 3.10235,0 6.31525,3.54614 5.05719,5.58173 -1.32807,2.14885 -9.6346,1.80008 -12.81919,-0.53825 z m 32.495148,0.53825 c -1.25806,-2.03559 1.95483,-5.58173 5.05719,-5.58173 1.40643,0 4.34445,0.68234 6.52893,1.51628 3.83078,1.46246 3.87455,1.58766 1.23306,3.5272 -3.18459,2.33833 -11.49112,2.6871 -12.81918,0.53825 z M 84.399862,177.03142 c 0,-12.64629 -1.62229,-16.24723 -7.31966,-16.24723 -2.43135,0 -2.73994,0.61062 -1.9608,3.87992 0.50856,2.13396 1.30801,10.18755 1.77655,17.89686 l 0.85189,14.01694 3.32601,-3.86673 c 2.92139,-3.39632 3.32601,-5.30381 3.32601,-15.67976 z m 50.108208,-11.66187 c 0.85285,-3.77379 0.61405,-4.58536 -1.34918,-4.58536 -1.31199,0 -3.61349,0.65723 -5.11445,1.46052 -2.38178,1.27469 -2.72901,3.04564 -2.72901,13.91855 0,10.77969 0.42767,13.00325 3.17449,16.50517 l 3.17448,4.04714 0.90371,-13.38032 c 0.49704,-7.35918 1.37003,-15.44375 1.93996,-17.9657 z M 45.219282,124.10734 c 4.08967,-3.1006 7.91192,-5.64019 8.49391,-5.64353 2.68478,-0.0154 0.61927,-2.66729 -3.36192,-4.31636 -2.43105,-1.00697 -6.20693,-3.33438 -8.39085,-5.17202 l -3.97075,-3.34117 -5.66051,4.10045 c -3.11328,2.25524 -7.59685,4.90251 -9.9635,5.88281 l -4.30299,1.78235 9.53633,6.04024 c 5.24499,3.32213 9.68218,6.09974 9.86044,6.17246 0.17825,0.0727 3.67018,-2.40463 7.75984,-5.50523 z m 136.403798,-0.53782 10.01599,-6.17526 -4.29622,-1.77955 c -2.36291,-0.97876 -6.84344,-3.62476 -9.95671,-5.88 l -5.66052,-4.10045 -3.97075,3.34117 c -2.18392,1.83764 -5.95979,4.16505 -8.39084,5.17202 -2.43104,1.00698 -4.41896,2.23001 -4.41756,2.71786 0.001,0.48784 2.7966,2.65215 6.21161,4.80957 3.415,2.15742 6.98352,4.85573 7.93007,5.99625 0.94655,1.14051 1.90053,2.07366 2.11998,2.07366 0.21943,0 4.90617,-2.77887 10.41495,-6.17527 z M 44.933532,94.080576 c -1.45292,-2.50025 -3.42426,-8.59501 -4.38075,-13.54391 l -1.73907,-8.998022 -2.05602,3.924045 c -4.12813,7.878817 -0.32436,21.203977 6.72661,23.564347 3.71626,1.244054 4.16217,-0.27794 1.44923,-4.94646 z m 126.934368,1.50642 c 2.7936,-2.60264 2.96056,-3.70735 2.05733,-13.61314 -1.01914,-11.177151 -2.05072,-15.072952 -2.05072,-7.744657 0,6.512287 -4.08431,18.733297 -7.1332,21.343827 -1.50863,1.29173 -2.74296,2.75436 -2.74296,3.25028 0,1.792844 6.89995,-0.46971 9.86955,-3.23631 z M 60.787542,94.726876 c 3.18259,-2.73435 2.07638,-6.59261 -3.60635,-12.57819 -2.3833,-2.51033 -3.83709,-5.049913 -3.23062,-5.643527 1.30618,-1.278505 10.69695,9.127767 10.69695,11.853707 0,2.50872 1.35233,2.37158 4.47427,-0.45374 7.02593,-6.35837 -1.1304,-17.00881 -14.9059,-19.463953 -3.02145,-0.538499 -6.40001,-1.88555 -7.5079,-2.993445 -1.1079,-1.107896 -2.67631,-2.014356 -3.48537,-2.014356 -0.80905,0 0.82354,2.36235 3.62798,5.249667 4.73015,4.86992 6.22251,7.448265 4.31111,7.448265 -1.17284,0 -12.44626,-12.592106 -13.69533,-15.297321 -0.60923,-1.319444 -0.71504,-0.494023 -0.2428,1.893948 0.46037,2.327955 1.65862,5.184989 2.66276,6.348966 1.00415,1.163977 2.61321,6.398698 3.57571,11.632709 1.46817,7.98388 2.5333,10.20416 6.61411,13.78715 4.84861,4.25713 5.99556,4.28177 10.71138,0.23012 z m 97.983918,0.5757 c 3.75868,-3.1627 8.87041,-15.24022 8.87041,-20.958101 0,-1.234343 0.81768,-3.083231 1.81705,-4.108639 2.13381,-2.189381 6.67753,-13.734787 6.58249,-16.725803 -0.0361,-1.138034 -1.46468,1.293682 -3.17448,5.403812 -3.04142,7.311145 -11.19711,17.217459 -14.17483,17.217459 -0.82449,0 1.01064,-2.633156 4.07807,-5.851458 3.62306,-3.801259 4.58847,-5.461935 2.75538,-4.739725 -1.55197,0.611454 -5.76152,1.919212 -9.35457,2.906131 -3.59303,0.986918 -8.49466,2.808918 -10.8925,4.048888 -7.35681,3.804354 -9.49976,11.052666 -4.58318,15.502116 2.57465,2.33002 2.74611,2.23271 4.28576,-2.43249 2.01152,-6.094953 5.95843,-9.798741 9.14066,-8.577603 2.15004,0.825049 2.03937,1.319253 -1.03444,4.619383 -1.89315,2.03252 -4.20896,5.18391 -5.14624,7.00309 -1.46871,2.85062 -1.26362,3.77652 1.48444,6.70167 3.94324,4.1974 4.34774,4.19702 9.34598,-0.009 z M 74.523692,74.799099 c 0,-0.732713 -1.47966,-3.052421 -3.28814,-5.154905 -2.77362,-3.224519 -4.59502,-3.889791 -11.63977,-4.251466 -6.55273,-0.336413 -7.28799,-0.19403 -3.41354,0.661033 6.17073,1.361839 9.86013,3.340545 13.2851,7.125099 2.82674,3.123512 5.05635,3.83796 5.05635,1.620239 z m 68.104718,-3.60588 c 4.37588,-3.745595 7.05045,-4.938084 11.07534,-4.938084 2.91846,0 5.71676,-0.664132 6.21843,-1.475848 1.0011,-1.619816 -11.73502,-0.427255 -17.25588,1.615772 -2.80322,1.037353 -8.76887,9.736245 -6.67705,9.736245 0.47856,0 3.46618,-2.222138 6.63916,-4.938085 z M 36.429902,56.462232 c 0,-0.730189 -0.6349,-1.720003 -1.41088,-2.199588 -0.77599,-0.479586 -1.41088,0.117842 -1.41088,1.327615 0,1.209773 0.63489,2.199588 1.41088,2.199588 0.77598,0 1.41088,-0.597426 1.41088,-1.327615 z m 38.78495,97.559988 c -0.76813,-0.54883 -2.5028,-2.31228 -3.85481,-3.91877 -2.36822,-2.81395 -2.31352,-3.05953 1.4941,-6.70746 l 3.95233,-3.78657 3.80247,3.96893 3.80246,3.96892 -3.89997,3.73641 c -2.14498,2.05503 -4.52844,3.28737 -5.29658,2.73854 z m 4.68772,-6.30915 c 0.60547,-3.14394 -3.35836,-4.71092 -6.11968,-2.41922 -1.64248,1.36313 -1.74638,2.20098 -0.4645,3.74555 2.14572,2.58544 5.97957,1.81313 6.58418,-1.32633 z m 49.198258,3.46445 -3.79694,-3.96316 3.96892,-3.80246 3.96892,-3.80248 3.90013,4.07086 3.90013,4.07086 -3.69477,3.69476 c -2.03212,2.03212 -3.86457,3.69477 -4.07211,3.69477 -0.20754,0 -2.08597,-1.78342 -4.17428,-3.96315 z m 7.3463,-2.19863 c 1.21717,-1.4666 1.09376,-2.35013 -0.51472,-3.68504 -2.4842,-2.0617 -6.38433,-0.95749 -6.38433,1.80754 0,4.028 4.17202,5.16337 6.89905,1.8775 z"
       id="path21"
       inkscape:connector-curvature="0" />
  </g>
  <g
     inkscape:groupmode="layer"
     id="layer2"
     inkscape:label="Layer 2">
    <path
       style="fill:#000000;stroke-width:0.26458332"
       id="path3781"
       d="m 34.100132,94.585339 c 0.02913,0.06091 0.05718,0.122579 0.08958,0.181835 0.0039,0.0074 0.008,0.01468 0.01172,0.0222 0.009,0.01831 0.01775,0.03652 0.02692,0.05473 0.0013,0.0024 0.0048,0.01005 0.0041,0.0074 -0.0013,-0.0044 -0.0037,-0.0084 -0.0056,-0.01259 -0.02011,-0.03352 0.03193,0.02775 0.03321,0.02926 0.02572,0.0369 0.04053,0.0797 0.05656,0.121336 0.01749,0.04769 0.03812,0.09421 0.06049,0.1398 0.01974,0.04494 0.04344,0.08763 0.06943,0.129196 0.0278,0.0417 0.04604,0.08727 0.06272,0.134168 0.0158,0.04472 0.03214,0.08923 0.05145,0.132559 0.02212,0.04132 0.04175,0.08365 0.06044,0.12659 0.01662,0.04286 0.04252,0.08105 0.06123,0.122957 0.01987,0.03745 0.04373,0.07179 0.07364,0.10178 0.03646,0.03721 0.06395,0.08189 0.0987,0.120369 0.03017,0.03501 0.05972,0.07002 0.08945,0.105341 0.02762,0.03702 0.05247,0.07591 0.07926,0.113501 0.02822,0.04088 0.05085,0.0856 0.08252,0.123992 0.02429,0.03446 0.05097,0.06742 0.0714,0.104373 0.02294,0.03442 0.04332,0.07052 0.06225,0.107283 0.02151,0.03495 0.04322,0.07022 0.06053,0.107498 0.01519,0.03483 0.02606,0.07113 0.03906,0.106722 0.0123,0.03703 0.0266,0.07271 0.04459,0.107304 0.01601,0.03362 0.03342,0.06654 0.05105,0.09935 0.02244,0.03917 0.04369,0.07906 0.06376,0.119496 0.0176,0.04186 0.03906,0.08208 0.06061,0.122032 0.01963,0.04066 0.03862,0.08152 0.05677,0.122875 0.01315,0.03712 0.03644,0.06865 0.05908,0.100367 0.01884,0.03543 0.04788,0.06281 0.07311,0.09332 0.02783,0.02781 0.05437,0.05699 0.08338,0.08361 0.02945,0.02959 0.06002,0.05842 0.08754,0.08986 0.03202,0.03825 0.06368,0.07706 0.101314,0.109942 0.03332,0.03055 0.06491,0.06381 0.103431,0.08794 0.03505,0.02479 0.06709,0.0528 0.09981,0.08061 0.03755,0.0285 0.08108,0.04718 0.120116,0.07314 0.03473,0.02384 0.07131,0.04638 0.104314,0.07269 0.03347,0.0182 0.06442,0.04082 0.09843,0.05825 0.03998,0.02455 0.08121,0.04596 0.126807,0.05764 0.04411,0.01953 0.09127,0.02689 0.138927,0.03068 0.04301,0.0011 0.08337,0.01683 0.122338,0.03342 0.03956,0.01516 0.07891,0.03083 0.118951,0.04505 0.04346,0.01722 0.08534,0.03888 0.129659,0.05379 0.02027,0.01699 0.04582,0.01998 0.06938,0.02862 0.01204,0.0044 0.02313,0.01109 0.03499,0.01595 0.0359,0.0079 0.06158,0.03574 0.09451,0.04993 0.03241,0.02249 0.06627,0.04331 0.101758,0.06068 0.04292,0.01074 0.08144,0.03178 0.121653,0.04947 0.04062,0.0217 0.08346,0.03725 0.123267,0.0607 0.0396,0.02305 0.07418,0.05267 0.110665,0.07998 0.0315,0.02812 0.06958,0.04448 0.107815,0.06084 0,0 -0.410179,0.271976 -0.410179,0.271976 v 0 c -0.04034,-0.01963 -0.07927,-0.04191 -0.113829,-0.07081 -0.03337,-0.02725 -0.06797,-0.05289 -0.105934,-0.07352 -0.03996,-0.02021 -0.08103,-0.0379 -0.121232,-0.05763 -0.04036,-0.01895 -0.08241,-0.03331 -0.122914,-0.05179 -0.03476,-0.01916 -0.06883,-0.03939 -0.102743,-0.05998 -0.02972,-0.0177 -0.05841,-0.03664 -0.09206,-0.04649 -0.03444,-0.01453 -0.07008,-0.02604 -0.103129,-0.04384 -0.0427,-0.01836 -0.08532,-0.03682 -0.128749,-0.05345 -0.04031,-0.01524 -0.08094,-0.02961 -0.120899,-0.04579 -0.03636,-0.01408 -0.07505,-0.02011 -0.1138,-0.0232 -0.04949,-0.0076 -0.09726,-0.02085 -0.144166,-0.03839 -0.04645,-0.01725 -0.08985,-0.04087 -0.132863,-0.06534 -0.0346,-0.02043 -0.06945,-0.04074 -0.102195,-0.06399 -0.03361,-0.02355 -0.0668,-0.0478 -0.101547,-0.06962 -0.04215,-0.02487 -0.08591,-0.04749 -0.123995,-0.07862 -0.03186,-0.02643 -0.06331,-0.05309 -0.09741,-0.07669 -0.03792,-0.02838 -0.07179,-0.06136 -0.105712,-0.09434 -0.03745,-0.03556 -0.0719,-0.074 -0.10568,-0.113036 -0.02747,-0.02984 -0.05555,-0.05929 -0.0853,-0.08684 -0.02907,-0.02894 -0.05871,-0.05723 -0.08594,-0.08795 -0.02696,-0.03079 -0.05482,-0.06075 -0.07522,-0.09662 -0.02484,-0.03415 -0.04894,-0.06925 -0.06371,-0.10912 -0.01836,-0.03984 -0.03523,-0.08034 -0.05451,-0.119745 -0.02238,-0.04026 -0.04425,-0.08114 -0.0614,-0.123917 -0.01974,-0.04001 -0.04155,-0.07903 -0.06432,-0.11738 -0.01765,-0.03308 -0.03508,-0.06626 -0.05095,-0.100192 -0.01868,-0.03621 -0.03518,-0.07303 -0.04765,-0.111893 -0.0136,-0.03427 -0.02246,-0.07047 -0.0375,-0.104277 -0.01614,-0.03686 -0.03816,-0.07111 -0.05849,-0.105752 -0.01881,-0.03641 -0.04041,-0.07124 -0.06231,-0.105859 -0.01881,-0.03478 -0.04459,-0.06527 -0.06708,-0.09768 -0.03012,-0.04036 -0.05415,-0.08465 -0.08253,-0.126219 -0.02658,-0.03661 -0.0517,-0.07421 -0.07897,-0.110334 -0.02818,-0.03583 -0.05871,-0.06926 -0.08754,-0.104593 -0.03278,-0.03905 -0.06171,-0.08125 -0.09758,-0.11775 -0.03321,-0.03476 -0.06061,-0.0743 -0.08289,-0.116909 -0.01791,-0.04217 -0.04507,-0.0797 -0.06072,-0.122938 -0.01924,-0.04274 -0.03808,-0.08547 -0.06111,-0.126416 -0.01923,-0.04452 -0.03602,-0.08996 -0.05244,-0.135593 -0.01619,-0.04341 -0.03066,-0.08674 -0.05784,-0.125087 -0.02689,-0.04289 -0.05047,-0.08758 -0.07122,-0.13376 -0.02336,-0.04656 -0.04458,-0.09433 -0.06291,-0.143077 -0.0145,-0.03543 -0.02556,-0.07341 -0.04921,-0.104137 -0.04307,-0.03972 0.0026,0.01953 -0.02761,-0.01566 -0.01934,-0.03061 -0.02876,-0.06671 -0.04688,-0.09825 -0.03048,-0.05962 -0.0561,-0.12183 -0.08965,-0.179893 0,0 0.425426,-0.245369 0.425426,-0.245369 z"
       inkscape:connector-curvature="0" />
    <path
       style="fill:#000000;stroke-width:0.26458332"
       id="path3783"
       d="m 33.650271,93.906582 c 0.02328,0.06365 0.05961,0.120904 0.09243,0.1798 0.01783,0.04106 0.04223,0.07828 0.06754,0.114959 0.01961,0.03137 0.04087,0.06275 0.06749,0.08863 0.02236,0.03142 0.04706,0.05875 0.07417,0.08574 0.02521,0.0282 0.0454,0.05962 0.06469,0.09207 0.02125,0.02783 0.04449,0.05368 0.06365,0.08315 0.02598,0.03001 0.04942,0.06238 0.07794,0.09006 0.02651,0.02638 0.04888,0.05558 0.06935,0.08688 0.01931,0.02622 0.04298,0.04846 0.06397,0.0732 0.03105,0.03888 0.06507,0.07521 0.09932,0.111249 0.03695,0.03767 0.06706,0.08081 0.100026,0.121703 0.02371,0.03533 0.04595,0.07179 0.06741,0.108609 0.02453,0.05311 0.05795,0.100417 0.09496,0.145375 0.03331,0.03592 0.07198,0.06627 0.105955,0.101386 0.02188,0.02752 0.04064,0.05798 0.06571,0.08275 0.02442,0.02524 0.04504,0.05311 0.06416,0.08263 0.02281,0.03636 0.04338,0.07395 0.06563,0.110659 0.02702,0.04197 0.05606,0.08261 0.08323,0.124484 0.03015,0.03929 0.05903,0.07951 0.087,0.12038 0.03168,0.0345 0.05675,0.07398 0.08801,0.108775 0.0082,0.0078 0.08134,0.105892 0.04743,0.03578 -0.674145,0.426672 -0.363807,0.399044 -0.419301,0.216151 -0.01225,-0.04036 -0.0258,-0.08046 -0.03824,-0.120793 -0.03118,-0.100356 -0.07384,-0.196485 -0.117928,-0.291687 -0.03752,-0.08773 -0.07702,-0.17454 -0.110109,-0.26407 -0.0295,-0.07622 -0.05931,-0.152244 -0.09023,-0.227902 -0.02638,-0.06584 -0.05718,-0.129907 -0.08962,-0.192963 -0.02582,-0.04854 -0.04813,-0.09858 -0.06886,-0.149476 -0.02371,-0.05199 -0.04364,-0.105495 -0.067,-0.157631 -0.02492,-0.05658 -0.05106,-0.112691 -0.07896,-0.167876 -0.02133,-0.04252 -0.03996,-0.0871 -0.06874,-0.125293 -0.0026,-0.0016 -0.0047,-0.0047 -0.0076,-0.0044 -0.0052,5.29e-4 -0.01056,0.02774 -0.0019,0.02302 0.138178,-0.08081 0.27636,-0.161618 0.414538,-0.242427 -0.01138,0.01045 -0.0066,0.0038 -0.01275,0.02101 -0.0061,0.04791 0.0085,0.09586 0.01939,0.142116 0.01138,0.04674 0.02955,0.09097 0.04612,0.135932 0.01548,0.03922 0.02946,0.07866 0.04871,0.11625 0.0033,0.0067 0.0063,0.01363 0.0098,0.02024 0.0079,0.01487 0.0131,0.02029 0.01281,0.01664 -2.65e-4,-0.0047 -0.0013,-0.01521 -0.0055,-0.01296 -0.434042,0.233047 -0.376174,0.400341 -0.429877,0.226832 -0.01572,-0.03835 -0.03482,-0.07568 -0.05637,-0.111096 -0.01574,-0.02835 -0.03222,-0.0558 -0.06428,-0.06586 -0.03555,-0.0078 -0.07112,-0.0088 -0.100533,0.01468 -0.153115,0.08439 0.0011,-5.29e-4 0.392901,-0.225203 0.0044,-0.0026 -0.0094,0.004 -0.01336,0.0072 -0.01373,0.01093 -0.02323,0.02734 -0.03141,0.04246 -0.0533,0.162978 -0.436178,0.383791 -0.4558,0.195831 -0.0019,-0.01828 0.0031,-0.03789 0.0059,-0.05581 0.0011,-0.0067 0.0019,-0.01341 0.0029,-0.02011 0,0 0.440674,-0.217829 0.440674,-0.217829 v 0 c -7.93e-4,0.007 -0.0013,0.014 -0.0021,0.02101 -0.0021,0.01527 -0.0027,0.03304 -0.0086,0.04753 -0.06137,0.150678 -0.598903,0.308401 -0.433155,0.22937 0.006,-0.0095 0.03224,-0.06658 0.03671,-0.0693 0.389202,-0.236916 0.279895,-0.195807 0.452586,-0.259003 0.043,-0.0046 0.0854,-0.0016 0.124592,0.01886 0.03453,0.02236 0.05954,0.05324 0.07847,0.08977 0.02262,0.03884 0.04286,0.07918 0.06173,0.119967 0.06306,0.173474 0.01804,0.03125 -0.408898,0.292233 -0.0036,0.0021 -0.03342,-0.05562 -0.03589,-0.06151 -0.02096,-0.03939 -0.03503,-0.08114 -0.05208,-0.122243 -0.01614,-0.04716 -0.03502,-0.09317 -0.04767,-0.14155 -0.01188,-0.05284 -0.02606,-0.104994 -0.03064,-0.159205 5.29e-4,-0.0066 0.0011,-0.01323 0.0013,-0.01984 5.29e-4,-0.0065 -0.0041,-0.01598 0.0013,-0.01955 0.189103,-0.123444 0.333605,-0.380106 0.472363,-0.222287 0.02622,0.04239 0.04892,0.08668 0.06962,0.131998 0.02813,0.05573 0.05354,0.112821 0.07901,0.169799 0.02492,0.05232 0.04522,0.106524 0.06967,0.159057 0.01958,0.04981 0.04124,0.09856 0.06563,0.146211 0.03265,0.06464 0.06232,0.130855 0.09013,0.197705 0.03017,0.07658 0.06152,0.152654 0.09039,0.229743 0.03139,0.08878 0.07006,0.174535 0.10603,0.261511 0.04498,0.09692 0.08838,0.194747 0.121978,0.296315 0.100131,0.30104 0.124862,0.135856 -0.353314,0.44972 -0.02833,-0.03029 -0.05731,-0.05994 -0.08247,-0.09308 -0.03196,-0.03663 -0.0587,-0.07734 -0.0905,-0.114162 -0.02852,-0.04103 -0.05843,-0.081 -0.08752,-0.121637 -0.02758,-0.04231 -0.05758,-0.08301 -0.08512,-0.125349 -0.0217,-0.03629 -0.04196,-0.07344 -0.06551,-0.108558 -0.01791,-0.02696 -0.03722,-0.05221 -0.05991,-0.07537 -0.02297,-0.02614 -0.04319,-0.05439 -0.06442,-0.08193 -0.03563,-0.03526 -0.07264,-0.06913 -0.106013,-0.106638 -0.0382,-0.04681 -0.07336,-0.09582 -0.0998,-0.150416 -0.02196,-0.03436 -0.04263,-0.06952 -0.06493,-0.103579 -0.03065,-0.04058 -0.06094,-0.08124 -0.09602,-0.118271 -0.03515,-0.03641 -0.07008,-0.07307 -0.102997,-0.111546 -0.02334,-0.02559 -0.04699,-0.05088 -0.0673,-0.07903 -0.01908,-0.02854 -0.0399,-0.05502 -0.06424,-0.07931 -0.02885,-0.03139 -0.05597,-0.06444 -0.08249,-0.09778 -0.02021,-0.02955 -0.04552,-0.0551 -0.06533,-0.08499 -0.0172,-0.02877 -0.03474,-0.05694 -0.05796,-0.08136 -0.02785,-0.02699 -0.05054,-0.05731 -0.07525,-0.08707 -0.02643,-0.02957 -0.05033,-0.06144 -0.07088,-0.09539 -0.02649,-0.03801 -0.05045,-0.07765 -0.06829,-0.120555 -0.03291,-0.06145 -0.0679,-0.12175 -0.09701,-0.185179 0,0 0.429049,-0.238368 0.429049,-0.238368 z"
       inkscape:connector-curvature="0" />
    <path
       style="fill:#000000;stroke-width:0.26458332"
       id="path3785"
       d="m 33.648869,94.050727 c 0.01606,0.0633 0.04173,0.123182 0.06469,0.184071 0.01302,0.0362 0.03644,0.06511 0.05957,0.0949 0.02267,0.02339 0.04526,0.04628 0.07001,0.06758 0.0315,0.0214 0.06276,0.04435 0.08977,0.07137 0.03065,0.02434 0.05342,0.05746 0.07596,0.08914 0.02011,0.03227 0.03797,0.06561 0.05606,0.09904 0.01802,0.03228 0.03052,0.06662 0.04457,0.100653 0.01519,0.03239 0.0199,0.06845 0.03818,0.0994 0.01434,0.0308 0.03336,0.05817 0.05279,0.08579 0.02479,0.03546 0.05361,0.06785 0.07576,0.105058 0.02159,0.03158 0.04097,0.06525 0.05663,0.100208 0.01669,0.02843 0.03315,0.05716 0.05166,0.08447 0.01873,0.03016 0.0325,0.06307 0.05005,0.09385 0.01532,0.03359 0.0341,0.06535 0.05123,0.09805 0.0177,0.03813 0.04178,0.0719 0.06612,0.105838 0.02006,0.03114 0.03814,0.06324 0.05612,0.09563 0.0168,0.03413 0.03978,0.06385 0.0622,0.09425 0.02815,0.0308 0.05403,0.06365 0.08204,0.09469 0.03558,0.04685 0.07286,0.09221 0.112205,0.135932 0.04167,0.04135 0.07265,0.09135 0.11076,0.135665 0.03986,0.04027 0.07637,0.0832 0.112426,0.126854 0.05185,0.06331 0.09214,0.133618 0.129292,0.20618 0.04236,0.08148 0.0754,0.166941 0.106754,0.253082 0,0 -0.418862,0.232568 -0.418862,0.232568 v 0 c -0.03181,-0.08362 -0.06512,-0.166714 -0.10918,-0.244829 -0.03664,-0.06898 -0.07713,-0.135316 -0.127905,-0.195014 -0.03619,-0.04343 -0.07355,-0.08546 -0.11284,-0.126124 -0.03694,-0.04452 -0.06729,-0.0943 -0.108884,-0.134991 -0.03928,-0.04367 -0.07657,-0.08891 -0.11289,-0.135062 -0.02959,-0.03196 -0.05804,-0.06486 -0.08621,-0.09806 -0.02387,-0.03202 -0.04647,-0.06464 -0.06565,-0.09974 -0.01704,-0.03077 -0.03396,-0.06134 -0.05293,-0.09096 -0.02553,-0.03579 -0.04917,-0.0725 -0.06926,-0.111691 -0.01714,-0.03216 -0.03645,-0.06311 -0.05111,-0.09652 -0.0168,-0.02991 -0.03051,-0.06153 -0.0484,-0.09087 -0.01945,-0.03008 -0.0384,-0.06051 -0.05564,-0.09194 -0.0141,-0.03345 -0.03343,-0.06483 -0.0531,-0.09522 -0.0213,-0.03611 -0.0499,-0.06725 -0.07448,-0.101113 -0.02059,-0.02869 -0.03956,-0.05802 -0.05506,-0.08982 -0.01886,-0.03317 -0.02755,-0.06928 -0.041,-0.104667 -0.01405,-0.03232 -0.02439,-0.06602 -0.04237,-0.09667 -0.01701,-0.03163 -0.03358,-0.06327 -0.05256,-0.09377 -0.02127,-0.02922 -0.04293,-0.05833 -0.07146,-0.08098 -0.02815,-0.02482 -0.05832,-0.04706 -0.08838,-0.06948 -0.02701,-0.02326 -0.0515,-0.04918 -0.0753,-0.0757 -0.02656,-0.03377 -0.05036,-0.06881 -0.06534,-0.109519 -0.0217,-0.06299 -0.04586,-0.125113 -0.06795,-0.187973 0,0 0.431895,-0.233561 0.431895,-0.233561 z"
       inkscape:connector-curvature="0" />
    <path
       style="fill:#000000;stroke-width:0.26458332"
       id="path3787"
       d="m 33.793734,94.318898 c 0.03894,0.05953 0.08342,0.115192 0.133876,0.165309 0.02976,0.03438 0.0658,0.06284 0.103386,0.08811 0.02917,0.02209 0.05375,0.04937 0.08188,0.07257 0.0026,0.0027 0.04732,0.0383 0.04935,0.03163 0.0016,-0.0048 0.0016,-0.01733 -0.0028,-0.01482 -0.141393,0.08194 -0.277913,0.172013 -0.416872,0.258021 -0.02085,-0.01953 -0.04393,-0.03811 -0.06411,-0.05894 -0.02506,-0.02651 -0.05586,-0.04602 -0.08363,-0.06928 -0.03068,-0.02138 -0.05765,-0.0473 -0.08636,-0.07128 -0.03168,-0.02948 -0.07242,-0.04524 -0.106251,-0.07193 -0.02968,-0.02106 -0.05797,-0.04527 -0.08252,-0.07225 -0.01955,-0.02963 -0.0416,-0.05721 -0.06257,-0.08584 -0.02817,-0.02519 -0.04545,-0.05938 -0.07054,-0.08721 -0.02106,-0.02548 -0.04248,-0.05159 -0.06751,-0.07333 -0.02874,-0.02841 -0.03824,-0.06792 -0.05227,-0.104452 -0.01005,-0.03759 -0.02463,-0.0737 -0.03446,-0.111352 -0.007,-0.03837 -0.01987,-0.07544 -0.03282,-0.112144 -0.01302,-0.04589 -0.02726,-0.09152 -0.03766,-0.13811 -0.06345,-0.204896 -0.02561,-0.05075 0.41932,-0.276878 -0.146463,0.08069 -0.292926,0.161388 -0.439388,0.24208 0,0 0.413826,-0.266501 0.413826,-0.266501 v 0 c -0.136448,0.087 -0.272899,0.173992 -0.409347,0.260987 -0.05019,-0.166648 -0.0061,-0.01119 0.432099,-0.251021 0.0016,-7.93e-4 -2.14e-4,0.0036 2.65e-4,0.0053 0.0016,0.0055 0.004,0.01066 0.006,0.01598 7.93e-4,0.0051 0.0011,0.01027 0.0024,0.01524 0.0021,0.0078 0.005,0.01532 0.0075,0.02299 0.0087,0.04484 0.0235,0.08786 0.03492,0.131998 0.01368,0.0381 0.02889,0.07633 0.03562,0.116351 0.0081,0.03615 0.0236,0.06971 0.03175,0.105825 0.01124,0.02965 0.0176,0.06274 0.04136,0.08518 0.02466,0.02482 0.04867,0.05048 0.07014,0.07813 0.02416,0.02986 0.0444,0.06277 0.07189,0.08988 0.02035,0.0266 0.04055,0.05321 0.05989,0.08053 0.02416,0.02365 0.04954,0.04622 0.0775,0.06532 0.03624,0.02432 0.07525,0.04474 0.107789,0.07424 0.02867,0.02344 0.05542,0.04924 0.08579,0.07058 0.03044,0.02281 0.05978,0.04651 0.08675,0.07342 0.02696,0.02495 0.05658,0.04778 0.07729,0.07858 -0.374562,0.254222 -0.299878,0.376274 -0.480586,0.22294 -0.02551,-0.02381 -0.05098,-0.04763 -0.07867,-0.06893 -0.03807,-0.02929 -0.07614,-0.05889 -0.106164,-0.09685 -0.04873,-0.05331 -0.09285,-0.110321 -0.137269,-0.167206 0,0 0.421191,-0.252881 0.421191,-0.252881 z"
       inkscape:connector-curvature="0" />
    <path
       style="fill:#000000;stroke-width:0.26458332"
       id="path3789"
       d="m 36.910496,98.543286 c -0.0654,-0.03436 -0.127807,-0.0738 -0.190928,-0.112006 -0.04107,-0.02334 -0.08416,-0.0451 -0.122399,-0.07297 -0.03988,-0.02548 -0.07777,-0.05485 -0.113607,-0.08572 -0.03111,-0.02567 -0.06882,-0.04081 -0.102066,-0.0627 -0.03568,-0.02188 -0.0743,-0.03891 -0.108974,-0.06237 -0.04173,-0.02432 -0.08269,-0.04915 -0.121012,-0.07871 -0.04556,-0.0292 -0.08796,-0.06279 -0.132564,-0.09328 -0.03505,-0.01889 -0.06926,-0.04095 -0.09801,-0.06867 -0.03007,-0.02667 -0.06578,-0.04479 -0.100007,-0.06529 -0.0436,-0.0199 -0.08094,-0.05055 -0.121434,-0.07568 -0.03765,-0.02765 -0.08023,-0.04755 -0.118842,-0.07336 -0.03521,-0.02207 -0.06673,-0.05075 -0.09862,-0.07771 -0.03922,-0.02619 -0.07174,-0.06077 -0.108622,-0.08994 -0.03058,-0.0298 -0.06204,-0.0558 -0.100375,-0.07506 -0.03238,-0.02368 -0.06573,-0.04428 -0.100293,-0.06439 -0.03701,-0.02267 -0.07536,-0.04566 -0.116205,-0.06088 -0.0394,-0.01923 -0.08148,-0.02976 -0.117819,-0.05499 -0.03408,-0.02154 -0.06902,-0.04198 -0.09914,-0.06894 -0.03107,-0.02445 -0.06514,-0.04449 -0.09446,-0.07107 -0.02771,-0.02254 -0.05501,-0.04647 -0.07893,-0.07312 -0.02735,-0.02305 -0.04573,-0.05501 -0.06529,-0.08463 -0.02053,-0.03939 -0.04568,-0.07613 -0.06561,-0.115776 -0.01897,-0.03249 -0.03768,-0.06552 -0.05289,-0.09999 -0.01974,-0.03319 -0.03301,-0.06962 -0.04919,-0.104576 -0.01688,-0.0441 -0.04266,-0.08365 -0.06322,-0.125892 -0.01871,-0.04185 -0.04701,-0.07806 -0.06872,-0.11816 -0.01588,-0.03529 -0.03128,-0.07074 -0.04834,-0.105476 -0.0114,-0.03243 -0.03153,-0.05998 -0.05108,-0.08781 -0.02228,-0.03778 -0.04506,-0.07503 -0.06906,-0.111752 -0.02188,-0.03875 -0.04723,-0.07659 -0.07898,-0.107984 -0.02703,-0.02746 -0.05315,-0.05654 -0.08272,-0.08133 -0.0218,-0.02654 -0.05363,-0.04014 -0.07899,-0.0628 -0.03186,-0.02936 -0.05575,-0.06578 -0.08574,-0.0968 -0.02734,-0.03073 -0.05472,-0.06136 -0.0787,-0.09496 -0.02729,-0.03208 -0.05134,-0.06773 -0.07003,-0.105522 -0.01783,-0.03134 -0.03525,-0.06325 -0.0496,-0.09637 -0.01286,-0.03636 -0.02721,-0.07219 -0.04094,-0.108262 -0.01998,-0.04299 -0.03695,-0.08746 -0.05771,-0.130032 -0.0181,-0.03437 -0.03846,-0.06867 -0.06189,-0.09977 -0.02556,-0.03145 -0.04732,-0.06453 -0.06553,-0.100865 -0.01849,-0.04087 -0.04322,-0.07826 -0.065,-0.117363 -0.02543,-0.03725 -0.04709,-0.07681 -0.06716,-0.1172 -0.01908,-0.03987 -0.04562,-0.07453 -0.07185,-0.109667 -0.0208,-0.03475 -0.04487,-0.06743 -0.06674,-0.101518 -0.02691,-0.03439 -0.05141,-0.07058 -0.07599,-0.106641 -0.02103,-0.03542 -0.04212,-0.07076 -0.06256,-0.106569 -0.02043,-0.03833 -0.03603,-0.07912 -0.05637,-0.117451 -0.01958,-0.03833 -0.0359,-0.07818 -0.0474,-0.119666 -0.01431,-0.03611 -0.02344,-0.07377 -0.03712,-0.110069 -0.01474,-0.03785 -0.01714,-0.07853 -0.02764,-0.117467 -0.0083,-0.03539 -0.01712,-0.0709 -0.03211,-0.104135 -0.01484,-0.036 -0.03814,-0.0672 -0.05587,-0.101618 -0.02265,-0.03404 -0.03926,-0.07181 -0.05314,-0.110154 -0.01908,-0.0445 -0.03007,-0.09163 -0.04375,-0.137901 -0.01138,-0.04923 -0.02635,-0.09759 -0.03565,-0.147278 -0.01505,-0.08644 -0.0016,-0.173257 0.0099,-0.259167 0.01328,-0.08393 0.0065,-0.04056 0.02029,-0.130119 0,0 0.431374,-0.212389 0.431374,-0.212389 v 0 c -0.01087,0.08899 -0.0048,0.04625 -0.01775,0.128259 -0.0095,0.0806 -0.02392,0.162113 -0.01101,0.243163 0.0082,0.04821 0.02379,0.09444 0.03355,0.142298 0.01336,0.0455 0.02384,0.09194 0.04307,0.135461 0.01233,0.03665 0.02958,0.07156 0.05033,0.104188 0.0176,0.03513 0.04192,0.0666 0.05716,0.103039 0.01659,0.03534 0.0277,0.07315 0.03573,0.111287 0.01066,0.03766 0.01437,0.07605 0.02558,0.113519 0.01431,0.03803 0.02381,0.07722 0.03893,0.115022 0.0092,0.0384 0.02503,0.07422 0.04252,0.109514 0.01969,0.03789 0.03481,0.07809 0.05465,0.115935 0.02043,0.03445 0.04123,0.06869 0.06116,0.103407 0.02468,0.0364 0.04948,0.07269 0.0761,0.107718 0.02178,0.03292 0.04599,0.06428 0.06575,0.09852 0.0278,0.0375 0.05386,0.07589 0.07555,0.117333 0.02022,0.03955 0.04092,0.07875 0.06618,0.115427 0.02212,0.0397 0.04696,0.07785 0.06638,0.119044 0.01699,0.03387 0.03862,0.06382 0.06162,0.09378 0.02424,0.03425 0.04765,0.06988 0.06582,0.107709 0.02101,0.04399 0.03817,0.08981 0.06003,0.133477 0.0136,0.03548 0.02893,0.07039 0.04074,0.10644 0.01331,0.03265 0.03132,0.06337 0.04816,0.09428 0.01669,0.03554 0.04017,0.06795 0.06489,0.0983 0.0236,0.03154 0.05089,0.05994 0.07633,0.08995 0.02697,0.03072 0.0509,0.06451 0.08278,0.09052 0.02773,0.02035 0.0572,0.03868 0.08002,0.06485 0.0287,0.02754 0.057,0.0556 0.08371,0.08509 0.03194,0.03524 0.06047,0.07382 0.08358,0.115443 0.02389,0.03602 0.04572,0.0732 0.06875,0.109752 0.02154,0.02966 0.04294,0.05998 0.05537,0.09477 0.01667,0.03432 0.03211,0.06914 0.04681,0.104346 0.02148,0.04103 0.05025,0.07795 0.0698,0.120131 0.01974,0.04258 0.04568,0.0821 0.06296,0.125929 0.0173,0.03516 0.03112,0.07196 0.05103,0.105809 0.01413,0.034 0.03333,0.06587 0.0511,0.09804 0.01831,0.03795 0.04251,0.07277 0.06264,0.109773 0.01884,0.02726 0.03616,0.05595 0.06167,0.07764 0.02405,0.02416 0.04909,0.04745 0.07571,0.06877 0.03079,0.02439 0.06393,0.04557 0.0942,0.07062 0.03025,0.02318 0.06266,0.04313 0.09525,0.06283 0.03694,0.01881 0.07644,0.03151 0.11376,0.04955 0.04056,0.02008 0.08035,0.04182 0.119144,0.06513 0.03473,0.01929 0.06543,0.04436 0.09976,0.06435 0.0386,0.0236 0.07215,0.05208 0.105375,0.08261 0.03526,0.0308 0.06979,0.0626 0.107918,0.0899 0.03135,0.02487 0.06137,0.05186 0.09606,0.07202 0.04029,0.02347 0.07896,0.04942 0.11833,0.0744 0.03911,0.02617 0.07845,0.05209 0.120298,0.07377 0.03755,0.0213 0.07467,0.04371 0.10669,0.07296 0.02952,0.0241 0.0617,0.04435 0.0938,0.06482 0.04345,0.03237 0.0877,0.06359 0.132376,0.09426 0.03868,0.02714 0.08005,0.04984 0.120013,0.075 0.03623,0.02072 0.07352,0.03957 0.109222,0.06123 0.03696,0.02003 0.07229,0.04323 0.104934,0.06976 0.03584,0.02897 0.07266,0.05671 0.111705,0.08124 0.03946,0.02474 0.07956,0.04853 0.119411,0.07265 0.06168,0.04007 0.124831,0.0779 0.191461,0.109265 0,0 -0.411766,0.267663 -0.411766,0.267663 z"
       inkscape:connector-curvature="0" />
    <path
       style="fill:#000000;stroke-width:0.26458332"
       id="path3791"
       d="m 35.045443,97.338342 c -0.02736,-0.0696 -0.05709,-0.138256 -0.08411,-0.207979 -0.01746,-0.04054 -0.03907,-0.07867 -0.06225,-0.11608 -0.122177,-0.145495 0.162671,-0.11983 0.417803,-0.24883 0.0021,-0.0011 5.29e-4,0.0047 0.0013,0.007 0.0013,0.0045 0.0031,0.0088 0.0047,0.0132 0.01471,0.04006 0.01884,0.08258 0.02177,0.124815 5e-6,0.03798 0.0085,0.07475 0.02244,0.10982 0.0195,0.02816 0.04137,0.05544 0.06655,0.07877 0.02606,0.02755 0.0431,0.06135 0.06307,0.0931 0.0159,0.02747 0.03528,0.05394 0.05869,0.07552 0.02273,0.02376 0.04445,0.04913 0.06959,0.07045 0.02373,0.02339 0.04557,0.04913 0.07099,0.07077 0.02461,0.02871 0.05703,0.04791 0.08452,0.07365 0.03455,0.02789 0.06706,0.05881 0.09731,0.0914 0.02013,0.02662 0.01026,0.01326 0.02956,0.04007 0,0 -0.422407,0.250015 -0.422407,0.250015 v 0 c -0.01799,-0.0241 -0.0091,-0.01262 -0.02655,-0.03451 -0.0302,-0.03095 -0.06198,-0.06049 -0.09549,-0.08783 -0.02877,-0.02437 -0.06073,-0.04507 -0.08572,-0.07371 -0.02392,-0.02331 -0.04733,-0.04715 -0.07096,-0.07074 -0.02418,-0.02357 -0.04797,-0.04759 -0.07082,-0.07244 -0.02421,-0.02611 -0.04712,-0.05392 -0.06431,-0.08523 -0.01749,-0.02875 -0.03297,-0.05908 -0.05689,-0.08334 -0.02816,-0.02965 -0.05587,-0.06068 -0.07674,-0.09595 -0.01603,-0.03956 -0.02879,-0.08113 -0.02912,-0.124224 -0.0019,-0.03735 -0.0036,-0.07537 -0.01627,-0.11094 -0.0019,-0.0047 -0.0038,-0.0095 -0.0057,-0.01423 -0.0024,-0.0057 -0.01222,-0.01381 -0.007,-0.01706 0.661107,-0.415407 0.339019,-0.383051 0.44491,-0.2265 0.02458,0.04038 0.04755,0.08154 0.06515,0.125564 0.02405,0.06877 0.05079,0.13716 0.08241,0.202745 0,0 -0.426312,0.242734 -0.426312,0.242734 z"
       inkscape:connector-curvature="0" />
    <path
       style="fill:#000000;stroke-width:0.26458332"
       id="path3793"
       d="m 34.691534,96.893638 c -0.02851,-0.06335 -0.05815,-0.126346 -0.08446,-0.190656 -0.02125,-0.0398 -0.0371,-0.08207 -0.05595,-0.122986 -0.01556,-0.03604 -0.03558,-0.07108 -0.06282,-0.09959 -0.02638,-0.03328 -0.0533,-0.06605 -0.07885,-0.09993 -0.02574,-0.03167 -0.05588,-0.0596 -0.07926,-0.09309 -0.02511,-0.03111 -0.04634,-0.06517 -0.06824,-0.09856 -0.01627,-0.03316 -0.03844,-0.06252 -0.05986,-0.09242 -0.0199,-0.0311 -0.04112,-0.06236 -0.06763,-0.08826 -0.0227,-0.02935 -0.04305,-0.06057 -0.06832,-0.08793 -0.02696,-0.03068 -0.05651,-0.05902 -0.08323,-0.08987 -0.02392,-0.03323 -0.04691,-0.06647 -0.06398,-0.103825 -0.01849,-0.03053 -0.02913,-0.06507 -0.04942,-0.09454 -0.03582,0.162893 0.409286,-0.216189 0.419888,-0.221925 0.003,-0.0016 -0.0041,0.0058 -0.0051,0.0091 -0.0028,0.0089 -0.0028,0.02405 -0.0032,0.03275 -0.0021,0.03593 0.0082,0.0702 0.02185,0.102931 0.0132,0.03579 0.02713,0.07173 0.05029,0.102341 0.0181,0.03086 0.03881,0.05958 0.05965,0.08856 0.02442,0.0254 0.04445,0.05589 0.0602,0.08739 0.01773,0.03065 0.03485,0.06203 0.04898,0.09456 0.01151,0.03406 0.02503,0.06739 0.04046,0.09985 0.01368,0.03225 0.02957,0.06352 0.04587,0.09454 0.01746,0.02658 0.03846,0.04951 0.06206,0.07069 0.03285,0.02601 0.06428,0.05408 0.09767,0.07945 0.02946,0.02647 0.05772,0.054 0.08721,0.08052 0.02835,0.02827 0.05396,0.05957 0.08382,0.08625 0.01749,0.02 0.0093,0.0092 0.02447,0.03244 0,0 -0.424698,0.248851 -0.424698,0.248851 v 0 c -0.01095,-0.01598 -0.0048,-0.0082 -0.01881,-0.02323 -0.02777,-0.02811 -0.05421,-0.05749 -0.08237,-0.08523 -0.02895,-0.0258 -0.05673,-0.05281 -0.08616,-0.07809 -0.03283,-0.02771 -0.06669,-0.05412 -0.09942,-0.08191 -0.0274,-0.02524 -0.05116,-0.05377 -0.07108,-0.08531 -0.01659,-0.03161 -0.03293,-0.06342 -0.0468,-0.09627 -0.01569,-0.03308 -0.03037,-0.06682 -0.04145,-0.101719 -0.0131,-0.03195 -0.03076,-0.06205 -0.04768,-0.09208 -0.01418,-0.02944 -0.03457,-0.05563 -0.05608,-0.08006 -0.02119,-0.02886 -0.04083,-0.05849 -0.05943,-0.08904 -0.02376,-0.03447 -0.04194,-0.07233 -0.05591,-0.111771 -0.01622,-0.03824 -0.03034,-0.07852 -0.03105,-0.120499 -1.88e-4,-0.0056 -0.0055,-0.05625 -0.0016,-0.05876 0.137538,-0.08814 0.337394,-0.386911 0.454782,-0.232074 0.01865,0.03298 0.03313,0.06773 0.05123,0.100965 0.01442,0.03304 0.03616,0.06141 0.05688,0.09073 0.02741,0.03027 0.05526,0.06016 0.08312,0.09 0.02373,0.02792 0.04549,0.05729 0.06775,0.08625 0.02609,0.02925 0.0497,0.0607 0.07063,0.09385 0.02231,0.03019 0.04429,0.06077 0.06094,0.09454 0.02162,0.0329 0.04285,0.06611 0.06732,0.09701 0.02363,0.03251 0.05406,0.05971 0.07821,0.09196 0.02503,0.03285 0.05109,0.06479 0.07758,0.09646 0.02809,0.03387 0.05189,0.07134 0.06882,0.112059 0.02014,0.04162 0.0361,0.08501 0.05659,0.126479 0.02339,0.06276 0.05005,0.125016 0.08205,0.183788 0,0 -0.425428,0.245369 -0.425428,0.245369 z"
       inkscape:connector-curvature="0" />
  </g>
</svg>
