<?xml version='1.0' encoding='utf-8'?>
<svg xmlns="http://www.w3.org/2000/svg" width="167.11444mm" height="104.45145mm" viewBox="0 0 167.11444 104.45145" version="1.1" id="svg8223"> <defs id="defs8217"/> <metadata id="metadata8220"> </metadata> <g id="layer1" transform="translate(-14.716556,-56.637272)"> <g id="g926" transform="matrix(3.1386183,0,0,3.1386183,-1074.5415,15.989061)"> <path id="path908" d="m 389.09192,14.53952 c -0.58984,-0.07873 -1.18202,-0.164096 -1.40316,0.801809 -0.82775,5.571571 -2.65825,9.451536 -4.34314,11.693041 -7.05614,1.5298 -13.14906,13.659956 -1.73725,17.172066 2.0179,2.271503 4.74573,2.500836 7.01582,0.668176 3.42414,1.170053 5.82864,0.222394 7.6172,-2.004523 6.46588,-1.037988 3.8139,-9.652574 0.044,-12.385001 -2.50671,-1.816858 -5.63919,-3.118573 -6.65152,-5.089423 -1.71302,-4.065371 1.2397,-6.579849 1.72986,-9.787067 -0.2165,-0.660887 -1.14704,-1.080209 -2.27179,-1.069078 z" style="fill:#f0ede1;fill-opacity:1;stroke:#000000;stroke-width:0.26499999;stroke-linecap:round;stroke-linejoin:round;stroke-miterlimit:4;stroke-dasharray:none;stroke-opacity:1"/> <path id="path910" d="m 385.34672,26.770645 c -1.71978,5.562145 -7.03845,9.733859 -3.73835,17.435791" style="fill:none;stroke:#000000;stroke-width:0.26499999;stroke-linecap:round;stroke-linejoin:round;stroke-miterlimit:4;stroke-dasharray:none;stroke-opacity:1"/> <path id="path912" d="m 388.62419,44.874612 c 2.50066,-3.120795 0.78468,-6.437713 0.88027,-9.670372" style="fill:none;stroke:#000000;stroke-width:0.26499999;stroke-linecap:round;stroke-linejoin:round;stroke-miterlimit:4;stroke-dasharray:none;stroke-opacity:1"/> <path id="path914" d="m 390.11866,27.030504 c 3.58227,4.85006 8.7448,9.259469 6.12273,15.839585" style="fill:none;stroke:#000000;stroke-width:0.26499999;stroke-linecap:round;stroke-linejoin:round;stroke-miterlimit:4;stroke-dasharray:none;stroke-opacity:1"/> <path id="path916" d="m 387.75633,22.967261 c 0.14689,3.492846 0.21481,7.038334 1.27566,9.921875" style="fill:none;stroke:#000000;stroke-width:0.26499999;stroke-linecap:round;stroke-linejoin:round;stroke-miterlimit:4;stroke-dasharray:none;stroke-opacity:1"/> <path id="path918" d="m 388.39416,16.990512 0.89768,-3.425409 c 0.21232,-0.902164 1.76867,-0.42996 1.51191,0.54334 -0.74379,2.669072 -2.01632,5.460163 -2.03163,7.961124" style="fill:#f0ede1;fill-opacity:1;stroke:#000000;stroke-width:0.26499999;stroke-linecap:round;stroke-linejoin:round;stroke-miterlimit:4;stroke-dasharray:none;stroke-opacity:1"/> </g> <g id="g963" transform="matrix(3.1386183,0,0,3.1386183,-1074.5415,15.989061)"> <g id="g955"> <path style="fill:#f0ede1;fill-opacity:1;stroke:#000000;stroke-width:0.26499999;stroke-linecap:round;stroke-linejoin:round;stroke-miterlimit:4;stroke-dasharray:none;stroke-opacity:1" d="m 369.16759,43.577161 c -10.08901,2.705408 -12.30265,-2.692474 -16.3114,-1.918989 -1.95211,0.891261 -3.83247,0.634826 -5.67355,-0.250302 5.29217,-0.08128 5.36658,-3.516834 7.88457,-5.381513 8.71984,-6.57226 17.43921,0.01721 15.6022,4.880906 0.1484,1.102063 -0.35224,1.992022 -1.50182,2.669898 z" id="path928"/> <path style="fill:none;stroke:#000000;stroke-width:0.26499999;stroke-linecap:round;stroke-linejoin:round;stroke-miterlimit:4;stroke-dasharray:none;stroke-opacity:1" d="m 367.73653,42.47573 c -0.2196,-0.862198 -1.28506,-1.231827 -2.44837,-0.825957 -3.02851,0.748478 -5.84843,0.497647 -8.87695,-0.946355 -1.11472,-0.457855 -2.0281,-0.355068 -3.2943,0.391572" id="path930"/> <path style="fill:none;stroke:#000000;stroke-width:0.26499999;stroke-linecap:round;stroke-linejoin:round;stroke-miterlimit:4;stroke-dasharray:none;stroke-opacity:1" d="m 368.88699,40.056854 c 2.5102,-3.51061 -1.981,-5.078716 -4.2478,-5.752203" id="path932"/> <path style="fill:#786721;stroke:#000000;stroke-width:0.26499999;stroke-linecap:round;stroke-linejoin:round;stroke-miterlimit:4;stroke-dasharray:none;stroke-opacity:1" d="m 369.16759,43.577161 c -1.40124,-0.409893 -1.07292,-1.639771 -0.96562,-1.948551 0.30365,-0.559443 0.69358,-1.282913 1.59946,-1.365266 0.54553,-0.08099 0.66549,0.329087 0.86798,0.643919 -0.0978,1.017186 -0.35915,1.982692 -1.50182,2.669898 z" id="path934"/> <path style="fill:none;stroke:#000000;stroke-width:0.26499999;stroke-linecap:round;stroke-linejoin:round;stroke-miterlimit:4;stroke-dasharray:none;stroke-opacity:1" d="m 354.37372,39.260398 c 0.78643,-0.756724 1.26054,-0.888804 1.74043,-1.032447" id="path936"/> </g> </g> </g> </svg>